<svg width="14" height="16" viewBox="0 0 14 16" fill="none" xmlns="http://www.w3.org/2000/svg">
<path d="M11.1983 1.88994C8.63658 -0.62998 4.48318 -0.62998 1.92144 1.88994C1.31322 2.48415 0.829919 3.19396 0.49995 3.97764C0.16998 4.76131 0 5.60304 0 6.45335C0 7.30366 0.16998 8.14539 0.49995 8.92906C0.829919 9.71274 1.31322 10.4225 1.92144 11.0168L6.55947 15.5802L11.1983 11.0168C11.8065 10.4225 12.2898 9.71274 12.6198 8.92906C12.9498 8.14539 13.1198 7.30366 13.1198 6.45335C13.1198 5.60304 12.9498 4.76131 12.6198 3.97764C12.2898 3.19396 11.8065 2.48415 11.1983 1.88994ZM6.55947 8.61C6.0117 8.61 5.49755 8.3968 5.10968 8.00975C4.7257 7.62495 4.51006 7.10355 4.51006 6.55995C4.51006 6.01635 4.7257 5.49495 5.10968 5.11016C5.49673 4.72311 6.0117 4.5099 6.55947 4.5099C7.10725 4.5099 7.62222 4.72311 8.00927 5.11016C8.39324 5.49495 8.60889 6.01635 8.60889 6.55995C8.60889 7.10355 8.39324 7.62495 8.00927 8.00975C7.62222 8.3968 7.10725 8.61 6.55947 8.61Z" fill="#FF8A00"/>
</svg>
