<svg width="96" height="60" viewBox="0 0 96 60" fill="none" xmlns="http://www.w3.org/2000/svg">
<path d="M95.6053 15.2115C95.6053 9.71384 91.7677 5.91741 86.2422 5.91005C79.871 5.91005 73.4986 5.91005 67.1249 5.91005C66.6964 5.91005 66.268 5.96897 65.7091 6.01315V38.2957H62.7284V0H61.0294C41.419 0 21.8062 0 2.1908 0C0.409843 0 0 0.423462 0 2.20936C0 14.9991 0 27.7914 0 40.586C0 42.2099 0 43.8338 0 45.4577C0 46.6029 0.543974 47.1883 1.69154 47.2546C2.06412 47.2767 2.45906 47.3135 2.99186 47.3577V49.1657C2.99186 53.1647 2.99186 53.1647 7.09029 53.1647C7.38836 53.1647 7.73859 53.0616 7.97332 53.1831C8.47258 53.4335 9.14324 53.6986 9.33698 54.1331C10.6857 57.1747 12.9324 58.9458 16.3229 59.049C19.516 59.1447 22.1725 57.3514 23.4021 54.1478C23.879 52.918 24.7136 53.2199 25.5444 53.1647C26.3753 53.1094 26.9714 53.1647 27.3515 54.1847C27.8578 55.5973 28.7906 56.8223 30.024 57.6942C31.2573 58.5661 32.7317 59.0429 34.248 59.0602C35.7643 59.0774 37.2494 58.6344 38.5027 57.7908C39.756 56.9472 40.7172 55.7437 41.2563 54.343C41.6289 53.3782 42.1245 53.1352 43.1193 53.1426C51.1348 53.1794 59.1491 53.1794 67.1622 53.1426C68.2799 53.1426 68.8835 53.3893 69.3492 54.5271C70.4372 57.2004 72.5758 58.747 75.4932 59.0269C78.4105 59.3067 81.1304 58.2683 82.2817 55.6833C83.433 53.0984 85.0425 52.918 87.2594 53.1757C87.4084 53.1757 87.5575 53.1757 87.7065 53.1757C89.0031 53.1941 89.6365 52.5718 89.6253 51.283C89.6141 49.9942 89.6253 48.7496 89.6253 47.4461C89.7956 47.3806 89.9714 47.3301 90.1507 47.2951C91.1939 47.2951 92.2409 47.273 93.2841 47.2657C95.2476 47.2436 95.5978 46.8974 95.5978 44.9053C95.6078 35 95.6103 25.1021 95.6053 15.2115ZM3.04029 3.0747H59.6732V38.2699H3.04029V3.0747ZM10.0114 47.6302C9.99273 47.726 9.9741 47.8217 9.95174 47.9101C9.92939 47.9984 9.89958 48.1421 9.86978 48.2525C9.78788 48.6227 9.66285 48.9823 9.49719 49.3241L9.42267 49.4529L9.34443 49.5671C9.31835 49.6039 9.28482 49.6407 9.25874 49.6739C9.22955 49.7063 9.19844 49.7371 9.16559 49.7659C9.10582 49.8257 9.0396 49.8788 8.96812 49.9243C8.91304 49.9607 8.85437 49.9916 8.793 50.0163C8.73023 50.0453 8.6655 50.0699 8.59926 50.09C8.53944 50.1086 8.47845 50.1234 8.41669 50.1342H8.34218C7.58254 50.2071 6.8163 50.1749 6.06568 50.0384V47.3172H10.0598C10.0598 47.4387 10.0337 47.5382 10.0114 47.6339V47.6302ZM16.4571 56.0994C15.572 56.1031 14.7058 55.847 13.9681 55.3637C13.2304 54.8804 12.6544 54.1916 12.3131 53.3845C11.9719 52.5774 11.8807 51.6884 12.0511 50.83C12.2215 49.9716 12.6458 49.1826 13.2704 48.5628C13.8949 47.943 14.6915 47.5203 15.5593 47.3483C16.4271 47.1763 17.327 47.2627 18.1451 47.5966C18.9632 47.9305 19.6625 48.4969 20.1547 49.2239C20.6468 49.951 20.9095 50.806 20.9095 51.6807C20.9085 52.8488 20.4396 53.969 19.6052 54.7964C18.7709 55.6237 17.639 56.0909 16.4571 56.0958V56.0994ZM25.9543 50.2078C23.7188 50.2557 23.7188 50.2888 22.7091 47.332H28.4916C27.1987 48.1899 27.996 50.1673 25.9543 50.2078ZM34.2815 56.0994C33.3958 56.0831 32.5349 55.807 31.8082 55.3062C31.0814 54.8055 30.5216 54.1027 30.1997 53.2869C29.8778 52.4712 29.8084 51.5794 30.0003 50.7246C30.1921 49.8698 30.6366 49.0906 31.2773 48.4859C31.918 47.8812 32.726 47.4782 33.5988 47.3282C34.4716 47.1781 35.3699 47.2877 36.1796 47.643C36.9893 47.9983 37.6739 48.5833 38.1466 49.3239C38.6193 50.0644 38.8587 50.927 38.8345 51.8022C38.7928 52.9643 38.2927 54.064 37.4411 54.8664C36.5896 55.6687 35.4542 56.11 34.2778 56.0958L34.2815 56.0994ZM68.9319 49.7402C68.7643 50.0163 68.1868 50.182 67.8142 50.1857C59.4534 50.2078 51.0926 50.2017 42.7318 50.1673C42.2996 50.1673 41.7593 49.7033 41.4724 49.313C41.0775 48.7754 40.8837 48.1015 40.5149 47.2951H69.9975C69.6982 48.1322 69.3409 48.9479 68.9282 49.7365L68.9319 49.7402ZM76.2607 56.0994C75.3746 56.1119 74.5048 55.8637 73.7617 55.3866C73.0185 54.9095 72.4356 54.2249 72.087 53.4197C71.7383 52.6146 71.6396 51.7252 71.8034 50.8644C71.9672 50.0037 72.3861 49.2105 73.0069 48.5856C73.6277 47.9606 74.4225 47.5321 75.2902 47.3544C76.1579 47.1766 77.0595 47.2578 77.8805 47.5875C78.7015 47.9172 79.4048 48.4805 79.9012 49.2061C80.3976 49.9316 80.6646 50.7865 80.6684 51.6623C80.6724 52.8273 80.2108 53.9467 79.3839 54.7769C78.5571 55.6072 77.4319 56.0812 76.2532 56.0958L76.2607 56.0994ZM86.5999 49.9537C84.0291 50.6497 83.8167 50.5208 82.4121 47.4093H86.5999V49.9537ZM92.524 44.1873H3.04775V41.4587H92.524V44.1873ZM92.5762 38.2957H68.8798V8.88533C75.0908 8.88533 81.1527 8.81168 87.2147 8.91847C89.983 8.96634 92.4868 11.2862 92.5277 14.0037C92.6619 22.0531 92.5762 30.1063 92.5762 38.2736V38.2957Z" fill="#2D2D2D"/>
<path d="M89.5658 16.0214C89.495 14.0219 87.8146 12.0776 85.8399 11.9709C82.1886 11.772 78.5186 11.9156 74.7891 11.9156V26.4606H89.6105C89.5993 22.8962 89.685 19.4569 89.5658 16.0214ZM86.6298 23.5001H77.7697V14.7767C80.2474 14.7767 82.5724 14.7436 84.8973 14.7767C85.1247 14.7658 85.3519 14.8018 85.5643 14.8826C85.7768 14.9633 85.9699 15.0871 86.1312 15.2458C86.2925 15.4045 86.4186 15.5948 86.5012 15.8045C86.5839 16.0141 86.6213 16.2385 86.6112 16.4632C86.6708 18.7794 86.6298 21.0771 86.6298 23.5001Z" fill="#2D2D2D"/>
<path d="M80.5829 31.0084C80.5829 31.5018 79.8377 32.1131 79.2788 32.4224C78.8615 32.647 78.2132 32.4666 77.6692 32.4666C77.0768 32.4666 76.3838 32.6581 75.9144 32.4187C75.4449 32.1794 74.7668 31.4945 74.7705 31.0084C74.8305 30.7027 74.9679 30.4171 75.1699 30.1782C75.3719 29.9393 75.6318 29.7549 75.9255 29.6423C77.044 29.4269 78.1939 29.4269 79.3123 29.6423C79.8414 29.7159 80.594 30.5297 80.5829 31.0084Z" fill="#2D2D2D"/>
<path d="M18.4985 51.6143C17.6081 52.3103 17.0268 53.0873 16.5648 53.0357C15.9799 52.9584 15.4918 52.1851 14.959 51.7175C15.4657 51.2167 15.9091 50.4213 16.4903 50.3071C16.9449 50.2188 17.5708 50.9736 18.4985 51.6143Z" fill="black"/>
<path d="M36.0697 51.3273C36.0697 51.5298 36.0697 51.736 36.0697 51.9386C35.5369 52.3362 34.952 53.1169 34.4825 53.0432C34.1397 52.9492 33.825 52.7744 33.5655 52.534C33.3059 52.2935 33.1092 51.9944 32.9922 51.6624C32.9065 51.2942 33.7858 50.3478 34.2813 50.3147C34.8514 50.2778 35.4699 50.9591 36.0697 51.3273Z" fill="#2D2D2D"/>
<path d="M77.9071 51.3973C77.9071 51.6035 77.881 51.8134 77.8698 52.0196C77.3184 52.3878 76.6887 53.1243 76.2379 53.0432C75.653 52.9217 75.217 52.1264 74.7178 51.6256C75.1984 51.1579 75.6753 50.3331 76.1709 50.3147C76.7521 50.3 77.3259 51.0069 77.9071 51.3973Z" fill="#2D2D2D"/>
</svg>
