<svg width="75" height="75" viewBox="0 0 75 75" fill="none" xmlns="http://www.w3.org/2000/svg">
<path d="M74.7494 6.51916L74.608 5.17501C74.325 2.41597 72.0611 0.293626 69.2314 0.0813921L68.0994 0.0106473C64.7037 -0.130842 61.3787 1.14256 58.9734 3.54788L47.6542 14.7963L10.584 14.7255C7.47122 14.7255 4.4292 15.999 2.16537 18.2628L0.608988 19.8192C0.113775 20.3144 -0.0984589 21.1633 0.0430305 21.8708C0.255265 22.5782 0.750478 23.1442 1.45792 23.3564L30.9585 31.4213L24.0962 38.2835L11.6452 38.708C10.3718 38.708 9.1691 39.2032 8.24942 40.1936L7.04676 41.3963C6.55154 41.8915 6.33931 42.6697 6.4808 43.3772C6.69303 44.0846 7.18825 44.5798 7.82495 44.8628L23.6718 50.8761L30.0388 67.2889C30.3218 67.9963 30.9585 68.4915 31.6659 68.5623C32.3734 68.633 33.0101 68.4208 33.5053 67.8548L34.7787 66.5814C35.6276 65.7325 36.1228 64.6006 36.2643 63.1857L36.6888 50.6639L43.6218 43.8724L51.6159 73.4437C51.8282 74.1511 52.3941 74.7171 53.1016 74.9293C53.3138 75 53.4553 75 53.6675 75C54.2335 75 54.7994 74.7878 55.2239 74.3633L56.7803 72.807C59.0441 70.5431 60.3175 67.5011 60.3175 64.3176V27.2474L71.283 16.2112C73.9005 13.6644 75.1739 10.0564 74.7494 6.51916ZM69.3021 14.2303L57.8415 25.691C57.5585 25.974 57.417 26.3277 57.417 26.6814V64.3176C57.417 66.7937 56.4266 69.0575 54.7287 70.8261L54.0212 71.5335L45.6026 40.9011C45.4611 40.4059 45.1074 40.0522 44.6122 39.9107C44.4707 39.9107 44.4 39.8399 44.2585 39.8399C43.9047 39.8399 43.551 39.9814 43.268 40.2644L34.2127 49.1782C33.9297 49.4612 33.7883 49.7442 33.7883 50.1686L33.3638 63.1857C33.3638 63.6101 33.2223 64.2468 32.7271 64.6713L32.2319 65.1665L26.0771 49.249C25.9356 48.8952 25.6526 48.6123 25.2281 48.4708L9.87654 42.599L10.301 42.1745C10.5132 41.9623 11.0792 41.5378 11.7867 41.5378L24.8744 41.1133C25.2281 41.1133 25.5819 40.9718 25.7941 40.6889L34.7787 31.7043C35.1324 31.3505 35.2739 30.8553 35.1324 30.3601C34.9909 29.8649 34.6372 29.5112 34.142 29.3697L3.43878 20.9511L4.14622 20.2436C5.8441 18.5458 8.17867 17.5553 10.584 17.5553L48.2202 17.6261C48.5739 17.6261 48.9276 17.4846 49.2106 17.2016L60.9542 5.52873C62.7936 3.68937 65.3404 2.69895 67.9579 2.84044L69.0899 2.91118C70.5048 2.98193 71.6367 4.11384 71.7782 5.45799L71.9197 6.80214C72.2026 9.56118 71.283 12.2495 69.3021 14.2303Z" fill="#2D2D2D"/>
</svg>
