<svg width="74" height="47" viewBox="0 0 74 47" fill="none" xmlns="http://www.w3.org/2000/svg">
<path d="M0.250511 33.2798C0.390396 33.235 0.527634 33.1797 0.675438 33.1217C0.999336 32.9743 1.3437 32.8766 1.69685 32.8319C2.05843 32.8082 2.45432 32.7977 2.93732 32.7977H3.82676H4.57368V31.5464C4.57368 30.598 4.57368 29.6496 4.57368 28.6986C4.57368 26.8019 4.57368 24.9025 4.57368 23.0005C4.57368 21.4384 4.77691 21.2408 6.38424 21.2276C6.66137 21.2276 6.93585 21.2276 7.21298 21.2118C7.54289 21.2118 7.88336 21.196 8.22119 21.196C8.63029 21.196 8.97076 21.196 9.29275 21.2329C9.38512 21.2329 9.46958 21.2329 9.55668 21.2329C9.66746 21.2462 9.77977 21.2374 9.88713 21.2071C9.99449 21.1768 10.0948 21.1256 10.1822 21.0564C10.33 20.9089 10.396 20.6323 10.3907 20.1844C10.3564 16.6649 10.3564 13.0901 10.359 9.647C10.359 8.10854 10.359 6.57008 10.359 5.03161C10.3541 4.83103 10.3338 4.63111 10.2983 4.43362C10.2983 4.37917 10.2904 4.32122 10.2746 4.25975H9.91035H9.42471C9.1819 4.25975 8.98396 4.25975 8.80184 4.24131H8.62237H8.21591C8.04647 4.26045 7.87491 4.24562 7.71129 4.19766C7.54767 4.14971 7.3953 4.06961 7.26313 3.96207C7.17535 3.86419 7.10853 3.74945 7.06677 3.62487C7.02502 3.50029 7.00921 3.36851 7.02031 3.23762C7.02031 2.60274 7.37134 2.27872 8.02589 2.27872C8.17896 2.27872 8.33205 2.29452 8.47984 2.30769C8.62765 2.32086 8.74377 2.3314 8.84143 2.3314H9.1687C9.66225 2.3314 10.0872 2.31296 10.2878 2.08377C10.4408 1.90991 10.4884 1.59115 10.4277 1.13541C10.3907 0.871971 10.6441 0.634879 10.9133 0.392519C11.0062 0.316298 11.0943 0.23448 11.1772 0.147524L11.3145 0L11.4728 0.165964C11.5414 0.237092 11.6417 0.318757 11.7367 0.397787C12.0007 0.624342 12.2646 0.837724 12.2329 1.10643C12.1775 1.57271 12.2329 1.89673 12.3913 2.0706C12.6209 2.33404 13.0907 2.34984 13.637 2.34984H13.7928C16.1919 2.34984 18.5646 2.3314 20.8423 2.3314C24.0781 2.3314 27.2637 2.34457 30.3148 2.37092C30.6649 2.41939 30.9903 2.57813 31.2438 2.82403C31.3573 2.91875 31.4763 3.00672 31.6001 3.08746L31.8825 3.25343L31.6186 3.44046L31.286 3.68546C31.0205 3.899 30.734 4.08523 30.4309 4.24131C30.3114 4.29431 30.1815 4.31953 30.0508 4.31507C29.9532 4.31507 29.8529 4.31507 29.7579 4.29663C29.6703 4.28521 29.5822 4.27905 29.4939 4.27819H13.0326C12.7212 4.27819 12.5048 4.29926 12.4071 4.40991C12.294 4.57086 12.2451 4.7681 12.2699 4.96312C12.2936 9.45733 12.2936 14.3915 12.2699 20.49C12.2425 20.7048 12.2992 20.9218 12.4282 21.0959C12.5869 21.2172 12.7867 21.272 12.9851 21.2487H13.0564C13.2359 21.2487 13.4285 21.2487 13.6423 21.2487C13.9458 21.2487 14.252 21.2487 14.5502 21.2487C14.8485 21.2487 15.1494 21.2487 15.4476 21.2487C15.8224 21.2487 16.1338 21.2487 16.4268 21.225C16.4954 21.225 16.564 21.225 16.6274 21.225C16.8306 21.2078 17.0352 21.2324 17.2286 21.2972C17.422 21.362 17.6 21.4656 17.7517 21.6017C18.0156 21.8651 18.1423 22.2945 18.1318 22.9189C18.108 24.4758 18.1133 26.0617 18.1159 27.5948C18.1159 29.02 18.1159 30.4926 18.1159 31.9442C18.0794 32.1949 18.1398 32.4501 18.2848 32.6581C18.4824 32.8004 18.7267 32.8626 18.9684 32.8319H19.008C20.0637 32.8319 21.1194 32.8319 21.9297 32.8319H24.4344C25.9151 32.8319 27.5092 32.8319 29.1218 32.7898C29.7589 32.7475 30.3633 32.4923 30.8374 32.0653C31.7321 31.2197 32.611 30.3293 33.4635 29.4679C34.6115 28.3061 35.7992 27.097 37.0371 25.9958C37.8289 25.2872 38.106 24.6128 38.0928 23.5116C38.04 21.4331 38.0532 19.323 38.0638 17.2814V15.4373C38.0638 13.833 38.2986 13.6091 39.9588 13.5933H44.9286V12.3551C44.9286 11.5227 44.9286 10.6902 44.9286 9.85511C44.9286 7.8372 44.9418 5.74816 44.9048 3.696C44.8916 3.07429 45.0104 2.6607 45.2743 2.39199C45.5382 2.12329 45.9315 2.00474 46.5227 2.00474H46.5834C48.4072 2.02845 50.1016 2.04162 51.7644 2.04162C53.4271 2.04162 55.1321 2.02318 56.713 1.99684H56.7922C57.4019 1.99684 57.8083 2.12065 58.0749 2.39199C58.3415 2.66333 58.4655 3.09273 58.455 3.75659C58.418 5.47682 58.4233 7.22603 58.4259 8.91992C58.4259 10.1844 58.4259 11.491 58.4259 12.7792C58.3916 13.0146 58.4493 13.2542 58.5869 13.4484C58.7486 13.5719 58.9525 13.6268 59.1544 13.6012H59.2468C59.8591 13.5801 60.5163 13.5722 61.316 13.5722H62.8996H63.8365C65.5626 13.5722 65.7817 13.7961 65.787 15.4821C65.787 16.1038 65.787 16.7246 65.787 17.3446C65.787 19.6154 65.8001 21.9626 65.7658 24.2703C65.7658 24.6681 65.8186 24.9157 65.9506 25.0474C66.1464 25.1938 66.3913 25.259 66.6342 25.2292H66.7213C67.5447 25.2081 68.3999 25.1976 69.3368 25.1976C70.3609 25.1976 71.4482 25.1976 72.8787 25.2371C73.2087 25.2582 73.7867 25.4584 73.9477 25.8167C74.1087 26.1749 73.8632 26.7097 73.6837 26.9731C73.4972 27.2381 73.2821 27.4819 73.0424 27.7002C72.95 27.7898 72.8524 27.882 72.7785 27.9768L69.5295 31.3488C66.3377 34.6856 63.1459 38.0225 59.9541 41.3593L59.9145 41.3989C59.6875 41.6359 59.4737 41.8572 59.4949 42.0495C59.5394 42.2048 59.64 42.338 59.7773 42.4236L59.9383 42.2392C60.1283 42.0232 60.3104 41.8177 60.511 41.6254C61.6881 40.4953 63.021 39.921 64.4699 39.921C65.2043 39.929 65.9319 40.0627 66.621 40.3161C68.8221 41.1064 70.1128 42.7819 70.3582 45.1818C70.3925 45.5243 70.1735 45.8483 69.9623 46.1618C69.8775 46.284 69.7991 46.4107 69.7274 46.5411L69.577 46.8309L69.3738 46.5675C69.2893 46.4647 69.189 46.362 69.0808 46.254C68.808 46.0315 68.607 45.7337 68.5028 45.3978C68.1043 43.2376 66.6104 41.8862 64.6468 41.8862C62.6198 41.8862 61.155 43.1823 60.7301 45.3504C60.6315 45.6851 60.4499 45.9895 60.2022 46.2355C60.1019 46.3541 60.0042 46.4647 59.9383 46.5754L59.7588 46.8388L59.5872 46.5754C59.5107 46.4621 59.4236 46.3488 59.3233 46.2303C59.0798 45.9707 58.8992 45.6589 58.7954 45.3188C58.3758 43.3298 57.0693 42.0574 55.3037 41.9152C55.1638 41.9152 55.0239 41.8994 54.8893 41.8994C52.8597 41.8994 51.4899 43.1665 51.028 45.4663C50.8936 45.8979 50.6391 46.2825 50.2943 46.5754C50.2691 46.5996 50.2393 46.6186 50.2067 46.6313C50.174 46.644 50.1392 46.65 50.1042 46.6491C49.9447 46.6295 49.7907 46.5784 49.6511 46.4988C49.5115 46.4192 49.3892 46.3127 49.2913 46.1855C49.1665 45.9116 49.0846 45.6201 49.0485 45.3214C49.0274 45.2002 49.0089 45.0869 48.9825 44.9763C48.8146 44.0957 48.3404 43.3027 47.6435 42.7373C46.9466 42.1718 46.072 41.8704 45.174 41.8862H45.0104C43.1998 41.9547 41.7957 43.2403 41.347 45.2424C41.2359 45.5977 41.0434 45.9224 40.7849 46.1907C40.6793 46.3225 40.579 46.4542 40.4945 46.5701L40.3072 46.8335L40.1356 46.5517C40.0538 46.4147 39.9693 46.2882 39.8717 46.146C39.6724 45.8468 39.4909 45.5363 39.328 45.216C39.2145 44.9692 39.1157 44.7159 39.0324 44.4573C38.9245 44.0846 38.7626 43.7297 38.552 43.4036C38.2294 42.9249 37.7936 42.5329 37.283 42.2622C36.7725 41.9916 36.2031 41.8507 35.625 41.852C35.2837 41.8533 34.9436 41.894 34.6115 41.9731C32.9567 42.3551 31.9722 43.4589 31.6027 45.3451C31.5006 45.6844 31.3103 45.9907 31.0511 46.2329C30.9525 46.3381 30.8599 46.449 30.774 46.5648L30.5919 46.8124L30.423 46.549C30.3464 46.4305 30.2567 46.3146 30.159 46.1907C29.9166 45.932 29.7409 45.6183 29.647 45.2766C29.2881 43.235 27.7837 41.8994 25.8174 41.8678H25.7567C23.8142 41.8678 22.2939 43.2271 21.8822 45.3293C21.7817 45.6631 21.6004 45.9671 21.3543 46.2144C21.2593 46.3304 21.1696 46.4384 21.0904 46.549L20.9109 46.8124L20.7394 46.549C20.6575 46.4286 20.5694 46.3126 20.4755 46.2013C20.2329 45.9478 20.057 45.6382 19.9634 45.3003C19.6019 43.2166 18.0631 41.8757 16.0388 41.8757C15.957 41.8757 15.8725 41.8757 15.7907 41.8757C13.9432 41.9758 12.5655 43.3351 12.1801 45.4189C12.0859 45.7356 11.9082 46.0213 11.6655 46.2461C11.5705 46.3514 11.4807 46.4515 11.4016 46.5517L11.2353 46.7808L11.0637 46.5543C10.9872 46.4542 10.908 46.3593 10.8262 46.2592C10.6165 46.0257 10.439 45.7652 10.2983 45.4847C10.1874 45.2295 10.0991 44.965 10.0344 44.6944C9.9752 44.4223 9.88671 44.1573 9.77046 43.9041C9.44949 43.2747 8.95745 42.7481 8.35067 42.3847C7.74389 42.0213 7.04688 41.8358 6.33938 41.8493C6.10145 41.8499 5.86398 41.8701 5.6294 41.9099C4.83885 42.0631 4.11551 42.4577 3.55946 43.0391C3.00341 43.6206 2.64213 44.3601 2.52559 45.1554C2.51239 45.2318 2.50447 45.3109 2.49392 45.3899C2.43585 45.8641 2.34875 46.5806 1.62559 46.5806C1.5422 46.5804 1.45905 46.5716 1.37749 46.5543C0.920891 46.4647 0.612099 45.4083 0.646408 44.9078C0.695915 44.1509 0.920715 43.4157 1.30312 42.7602C1.68553 42.1047 2.21513 41.5467 2.85022 41.1301C3.48013 40.7311 4.14644 40.3924 4.84025 40.1186C5.06987 40.0185 5.30741 39.9157 5.54494 39.8077L5.48424 39.7418C5.29157 39.5311 5.09098 39.3124 4.88248 39.1043C4.46371 38.6828 4.04143 38.2631 3.61562 37.8451C2.68394 36.9231 1.7206 35.9721 0.807404 35C0.568031 34.7017 0.388779 34.36 0.279541 33.9937C0.221474 33.8356 0.163414 33.6881 0.100067 33.5458L-0.000221252 33.3325L0.250511 33.2798ZM3.79509 34.7339L10.8948 42.7872C12.2145 41.2961 13.7426 39.9579 16.0177 39.9526H16.0414C17.947 39.9526 19.5042 40.7429 20.9162 42.4342C22.3916 40.7508 23.9303 39.9605 25.7382 39.9526H25.7778C27.6755 39.9526 29.2089 40.7429 30.6288 42.4394C32.1016 40.7482 33.6456 39.9579 35.472 39.95H35.4957C37.3247 39.95 38.8529 40.7218 40.2834 42.3762C41.7403 40.7771 43.4268 39.9342 45.1793 39.9342C46.9318 39.9342 48.6104 40.7771 50.1069 42.3762C51.4529 40.7455 52.9916 39.9526 54.8048 39.9526C55.0491 39.9538 55.2931 39.9679 55.5359 39.9947C55.6098 39.9947 55.6864 40.0079 55.7629 40.0132C56.0388 40.0102 56.311 40.0763 56.5547 40.2055C56.8258 40.4054 57.1497 40.5217 57.4864 40.5401C58.0564 40.5401 58.5421 40.0817 59.091 39.4863C61.6512 36.7598 64.2799 34.0148 66.8242 31.362C67.9327 30.2064 69.0412 29.049 70.1497 27.8899C70.3134 27.7187 70.4638 27.5343 70.6776 27.2787L70.7831 27.1496H53.9682C48.3385 27.1496 43.7594 27.1496 39.555 27.1338C39.2074 27.1196 38.8611 27.1832 38.5415 27.32C38.2218 27.4567 37.9368 27.6632 37.7074 27.9241C36.7731 28.8883 35.8045 29.8498 34.8676 30.7824C33.8725 31.7703 32.8432 32.7924 31.8535 33.8172C31.5688 34.1278 31.2189 34.372 30.8289 34.5323C30.4388 34.6925 30.0182 34.765 29.5969 34.7445H29.581C24.4661 34.7287 19.4382 34.726 15.1942 34.726H3.79509V34.7339ZM16.1312 23.8014C16.0734 23.6639 15.9871 23.5402 15.8779 23.4385C15.7687 23.3368 15.6391 23.2593 15.4977 23.2113C14.1543 23.1823 12.7397 23.1665 11.2881 23.1665C9.94466 23.1665 8.56694 23.1665 7.07838 23.2034C6.84895 23.2724 6.65511 23.4271 6.53732 23.6354C6.49773 26.0827 6.50037 28.509 6.50301 31.0775C6.50301 31.6482 6.50301 32.2252 6.50301 32.8082H10.198C11.8106 32.8082 13.7189 32.8082 15.6218 32.7687C15.7401 32.7127 15.846 32.6338 15.9335 32.5366C16.0209 32.4394 16.0881 32.3257 16.1312 32.2023C16.1998 29.2176 16.1998 26.47 16.1444 23.8014H16.1312ZM56.3805 13.4958V4.04373H46.9556V13.4958H56.3805ZM39.9852 19.265C39.9852 19.6707 39.9852 20.0738 39.9852 20.4795C39.9852 20.8851 39.9852 21.2698 39.9852 21.657C39.9852 22.5711 39.9852 23.5195 39.9693 24.4494C39.9324 24.6698 39.9836 24.8959 40.1119 25.079C40.2767 25.2043 40.4842 25.2601 40.6899 25.2345H40.7136C41.9963 25.2213 43.3028 25.2134 44.7095 25.2134C46.0292 25.2134 47.3937 25.2134 48.9007 25.2318H48.9271C49.0331 25.2611 49.145 25.2615 49.2512 25.2332C49.3574 25.2048 49.4542 25.1487 49.5314 25.0705C49.6086 24.9924 49.6635 24.8951 49.6904 24.7887C49.7174 24.6823 49.7153 24.5706 49.6846 24.4652C49.6635 21.7545 49.6635 19.0042 49.6846 16.2987C49.7137 16.0772 49.6571 15.853 49.5262 15.6718C49.3588 15.5474 49.1504 15.491 48.9429 15.5137H48.9271C47.5916 15.5137 46.2482 15.5321 44.9312 15.5321C43.5297 15.5321 42.1204 15.5321 40.74 15.5111H40.7136C40.5034 15.484 40.2909 15.5408 40.1224 15.6691C39.9969 15.8455 39.9448 16.0637 39.9772 16.2777C39.9984 17.2708 39.9904 18.285 39.9852 19.265ZM52.2315 19.1175C52.2315 18.127 52.2315 17.1049 52.2051 16.1012C52.1527 15.9459 52.0619 15.8064 51.9412 15.6955L51.9201 15.6665L51.891 15.7007C51.7749 15.8377 51.6429 15.9958 51.6429 16.1012C51.606 18.9226 51.606 21.7835 51.6429 24.6049C51.6429 24.7102 51.7776 24.8683 51.9069 25.0079L51.9359 25.0395L51.9597 25.0105C52.0722 24.8948 52.1554 24.7539 52.2025 24.5996C52.2368 23.5248 52.2341 22.4289 52.2289 21.3699C52.2289 21.009 52.2289 20.6507 52.2289 20.2898C52.2289 19.9289 52.2289 19.5074 52.2315 19.1175ZM63.8444 24.4468C63.8444 23.2271 63.8444 21.9889 63.8444 20.7929C63.8444 19.2729 63.8444 17.7029 63.818 16.1591C63.7682 15.9224 63.6353 15.7113 63.4433 15.5638C61.4427 15.5295 59.4289 15.5242 57.7239 15.5242H54.2321V25.2239H59.3471H60.4028H61.4585C62.0523 25.2239 62.538 25.2239 62.9867 25.245H63.079C63.3032 25.272 63.5292 25.2116 63.7098 25.0764C63.8378 24.8931 63.889 24.6672 63.8523 24.4468H63.8444Z" fill="#2D2D2D"/>
<path d="M39.5765 29.1571L39.793 28.9569C39.9952 28.7459 40.2251 28.5634 40.4765 28.4142C40.6225 28.3368 40.7865 28.2995 40.9516 28.3062C41.0413 28.3062 41.1311 28.3062 41.2155 28.3062C41.2771 28.3096 41.3388 28.3096 41.4003 28.3062H53.0871H53.3035H65.5261C65.9537 28.3062 66.3865 28.3483 66.6689 28.6645C66.7652 28.7808 66.8345 28.9169 66.8719 29.0631C66.9093 29.2093 66.9139 29.3619 66.8854 29.5101C66.8194 30.0185 66.1912 30.2714 65.5868 30.5138L65.3942 30.5928C65.2408 30.6543 65.0764 30.6839 64.9112 30.6797C64.8109 30.6797 64.7132 30.6797 64.6209 30.6639C64.5285 30.6481 64.4625 30.6639 64.3965 30.6639H42.5748H42.0944C41.9282 30.6639 41.7592 30.6639 41.5903 30.6639C41.2506 30.6693 40.9112 30.642 40.5768 30.5823C40.2512 30.4796 39.9714 30.2673 39.785 29.9816C39.7085 29.8921 39.6399 29.8078 39.5739 29.7445L39.405 29.5865L39.2387 29.4258L39.4129 29.2756L39.5765 29.1571Z" fill="#2D2D2D"/>
</svg>
