<svg width="15" height="12" viewBox="0 0 15 12" fill="none" xmlns="http://www.w3.org/2000/svg">
<path d="M7.0828 5.66552L0.0078125 1.84424V0.944253C0.0078125 0.678681 0.0953286 0.454913 0.270361 0.272948C0.445393 0.0909827 0.652668 0 0.892186 0H13.2734C13.5129 0 13.7202 0.0909827 13.8952 0.272948C14.0703 0.454913 14.1578 0.678681 14.1578 0.944253V1.84424L7.0828 5.66552ZM6.64061 6.60977H7.52498L14.1578 2.93604V10.3868C14.1578 10.6425 14.0703 10.8638 13.8952 11.0507C13.7202 11.2376 13.5129 11.331 13.2734 11.331H0.892186C0.652668 11.331 0.445393 11.2376 0.270361 11.0507C0.0953286 10.8638 0.0078125 10.6425 0.0078125 10.3868V2.93604L6.64061 6.60977Z" fill="white"/>
</svg>
