<svg width="26" height="22" viewBox="0 0 26 22" fill="none" xmlns="http://www.w3.org/2000/svg">
<path fill-rule="evenodd" clip-rule="evenodd" d="M0.399902 2.0002C0.399902 1.52281 0.589545 1.06497 0.92711 0.727403C1.26468 0.389838 1.72251 0.200195 2.1999 0.200195H23.7999C24.2773 0.200195 24.7351 0.389838 25.0727 0.727403C25.4103 1.06497 25.5999 1.52281 25.5999 2.0002C25.5999 2.47758 25.4103 2.93542 25.0727 3.27299C24.7351 3.61055 24.2773 3.8002 23.7999 3.8002H2.1999C1.72251 3.8002 1.26468 3.61055 0.92711 3.27299C0.589545 2.93542 0.399902 2.47758 0.399902 2.0002Z" fill="black"/>
<path fill-rule="evenodd" clip-rule="evenodd" d="M0.399902 11.0002C0.399902 10.5228 0.589545 10.065 0.92711 9.7274C1.26468 9.38984 1.72251 9.2002 2.1999 9.2002H12.9999C13.4773 9.2002 13.9351 9.38984 14.2727 9.7274C14.6103 10.065 14.7999 10.5228 14.7999 11.0002C14.7999 11.4776 14.6103 11.9354 14.2727 12.273C13.9351 12.6106 13.4773 12.8002 12.9999 12.8002H2.1999C1.72251 12.8002 1.26468 12.6106 0.92711 12.273C0.589545 11.9354 0.399902 11.4776 0.399902 11.0002Z" fill="black"/>
<path fill-rule="evenodd" clip-rule="evenodd" d="M0.399902 20.0002C0.399902 19.5228 0.589545 19.065 0.92711 18.7274C1.26468 18.3898 1.72251 18.2002 2.1999 18.2002H23.7999C24.2773 18.2002 24.7351 18.3898 25.0727 18.7274C25.4103 19.065 25.5999 19.5228 25.5999 20.0002C25.5999 20.4776 25.4103 20.9354 25.0727 21.273C24.7351 21.6106 24.2773 21.8002 23.7999 21.8002H2.1999C1.72251 21.8002 1.26468 21.6106 0.92711 21.273C0.589545 20.9354 0.399902 20.4776 0.399902 20.0002Z" fill="black"/>
</svg>
