<svg width="25" height="25" viewBox="0 0 25 25" fill="none" xmlns="http://www.w3.org/2000/svg">
<path d="M8.46797 2.30542H16.868C20.068 2.30542 22.668 4.90542 22.668 8.10542V16.5054C22.668 18.0437 22.0569 19.5189 20.9692 20.6066C19.8815 21.6944 18.4062 22.3054 16.868 22.3054H8.46797C5.26797 22.3054 2.66797 19.7054 2.66797 16.5054V8.10542C2.66797 6.56716 3.27904 5.09191 4.36675 4.0042C5.45446 2.91649 6.92971 2.30542 8.46797 2.30542ZM8.26797 4.30542C7.31319 4.30542 6.39752 4.6847 5.72238 5.35984C5.04725 6.03497 4.66797 6.95064 4.66797 7.90542V16.7054C4.66797 18.6954 6.27797 20.3054 8.26797 20.3054H17.068C18.0227 20.3054 18.9384 19.9261 19.6136 19.251C20.2887 18.5759 20.668 17.6602 20.668 16.7054V7.90542C20.668 5.91542 19.058 4.30542 17.068 4.30542H8.26797ZM17.918 5.80542C18.2495 5.80542 18.5674 5.93712 18.8019 6.17154C19.0363 6.40596 19.168 6.7239 19.168 7.05542C19.168 7.38694 19.0363 7.70488 18.8019 7.9393C18.5674 8.17372 18.2495 8.30542 17.918 8.30542C17.5864 8.30542 17.2685 8.17372 17.0341 7.9393C16.7997 7.70488 16.668 7.38694 16.668 7.05542C16.668 6.7239 16.7997 6.40596 17.0341 6.17154C17.2685 5.93712 17.5864 5.80542 17.918 5.80542ZM12.668 7.30542C13.9941 7.30542 15.2658 7.8322 16.2035 8.76989C17.1412 9.70757 17.668 10.9793 17.668 12.3054C17.668 13.6315 17.1412 14.9033 16.2035 15.841C15.2658 16.7786 13.9941 17.3054 12.668 17.3054C11.3419 17.3054 10.0701 16.7786 9.13243 15.841C8.19475 14.9033 7.66797 13.6315 7.66797 12.3054C7.66797 10.9793 8.19475 9.70757 9.13243 8.76989C10.0701 7.8322 11.3419 7.30542 12.668 7.30542ZM12.668 9.30542C11.8723 9.30542 11.1093 9.62149 10.5466 10.1841C9.98404 10.7467 9.66797 11.5098 9.66797 12.3054C9.66797 13.1011 9.98404 13.8641 10.5466 14.4267C11.1093 14.9893 11.8723 15.3054 12.668 15.3054C13.4636 15.3054 14.2267 14.9893 14.7893 14.4267C15.3519 13.8641 15.668 13.1011 15.668 12.3054C15.668 11.5098 15.3519 10.7467 14.7893 10.1841C14.2267 9.62149 13.4636 9.30542 12.668 9.30542Z" fill="white"/>
</svg>
