<svg width="15" height="15" viewBox="0 0 15 15" fill="none" xmlns="http://www.w3.org/2000/svg">
<path d="M12.6462 0H1.51755C1.11507 0 0.729075 0.159884 0.44448 0.44448C0.159884 0.729075 0 1.11507 0 1.51755L0 12.6462C0 13.0487 0.159884 13.4347 0.44448 13.7193C0.729075 14.0039 1.11507 14.1638 1.51755 14.1638H12.6462C13.0487 14.1638 13.4347 14.0039 13.7193 13.7193C14.0039 13.4347 14.1638 13.0487 14.1638 12.6462V1.51755C14.1638 1.11507 14.0039 0.729075 13.7193 0.44448C13.4347 0.159884 13.0487 0 12.6462 0ZM12.1281 9.71769L11.6538 11.7727C11.6297 11.8772 11.571 11.9704 11.4871 12.0372C11.4032 12.104 11.2991 12.1403 11.1919 12.1404C6.13343 12.1404 2.0234 8.03953 2.0234 2.97187C2.02716 2.86566 2.06492 2.76346 2.13111 2.68031C2.19729 2.59716 2.28843 2.53745 2.39109 2.50996L4.4461 2.03573C4.48116 2.02832 4.51683 2.02419 4.55265 2.0234C4.64435 2.02803 4.73315 2.05712 4.80981 2.10766C4.88648 2.15819 4.94822 2.22833 4.98863 2.31078L5.93709 4.52388C5.96032 4.58355 5.97326 4.64673 5.97535 4.71072C5.96763 4.85111 5.9052 4.98288 5.80146 5.07778L4.60355 6.05787C5.32938 7.59625 6.56753 8.83441 8.10592 9.56024L9.08601 8.36233C9.18091 8.25858 9.31268 8.19616 9.45306 8.18844C9.51707 8.1905 9.58025 8.20343 9.63991 8.2267L11.853 9.17516C11.9355 9.21551 12.0057 9.27724 12.0562 9.35392C12.1068 9.4306 12.1358 9.51942 12.1404 9.61114C12.1398 9.64697 12.1356 9.68266 12.1281 9.71769Z" fill="#FF8A00"/>
</svg>
