<svg width="32" height="32" viewBox="0 0 32 32" fill="none" xmlns="http://www.w3.org/2000/svg">
<path d="M26.0696 3.9958C25.7486 4.01915 25.4335 4.09447 25.1366 4.2188H25.1326C24.8476 4.3318 23.4926 4.9018 21.4326 5.7658L14.0506 8.8748C8.75363 11.1048 3.54663 13.3008 3.54663 13.3008L3.60863 13.2768C3.60863 13.2768 3.24963 13.3948 2.87463 13.6518C2.64296 13.7992 2.4436 13.9921 2.28863 14.2188C2.10463 14.4888 1.95663 14.9018 2.01163 15.3288C2.10163 16.0508 2.56963 16.4838 2.90563 16.7228C3.24563 16.9648 3.56963 17.0778 3.56963 17.0778H3.57763L8.46063 18.7228C8.67963 19.4258 9.94863 23.5978 10.2536 24.5588C10.4336 25.1328 10.6086 25.4918 10.8276 25.7658C10.9336 25.9058 11.0576 26.0228 11.2066 26.1168C11.2841 26.1619 11.3667 26.1974 11.4526 26.2228L11.4026 26.2108C11.4176 26.2148 11.4296 26.2268 11.4406 26.2308C11.4806 26.2418 11.5076 26.2458 11.5586 26.2538C12.3316 26.4878 12.9526 26.0078 12.9526 26.0078L12.9876 25.9798L15.8706 23.3548L20.7026 27.0618L20.8126 27.1088C21.8196 27.5508 22.8396 27.3048 23.3786 26.8708C23.9216 26.4338 24.1326 25.8748 24.1326 25.8748L24.1676 25.7848L27.9016 6.6558C28.0076 6.1838 28.0346 5.7418 27.9176 5.3128C27.797 4.87862 27.5184 4.50521 27.1366 4.2658C26.8161 4.07091 26.4443 3.97685 26.0696 3.9958ZM25.9686 6.0458C25.9646 6.1088 25.9766 6.1018 25.9486 6.2228V6.2338L22.2496 25.1638C22.2336 25.1908 22.2066 25.2498 22.1326 25.3088C22.0546 25.3708 21.9926 25.4098 21.6676 25.2808L15.7576 20.7498L12.1876 24.0038L12.9376 19.2138L22.5936 10.2138C22.9916 9.8438 22.8586 9.7658 22.8586 9.7658C22.8866 9.3118 22.2576 9.6328 22.2576 9.6328L10.0816 17.1758L10.0776 17.1558L4.24163 15.1908V15.1868L4.22663 15.1838C4.23686 15.1804 4.24688 15.1764 4.25663 15.1718L4.28863 15.1558L4.31963 15.1448C4.31963 15.1448 9.53063 12.9488 14.8276 10.7188C17.4796 9.6018 20.1516 8.4768 22.2066 7.6088C24.2616 6.7458 25.7806 6.1128 25.8666 6.0788C25.9486 6.0468 25.9096 6.0468 25.9686 6.0468V6.0458Z" fill="black"/>
</svg>
