<svg width="48" height="72" viewBox="0 0 48 72" fill="none" xmlns="http://www.w3.org/2000/svg">
<path d="M45.7932 31.2402C45.79 30.49 45.6232 29.7495 45.3045 29.0702C43.0782 24.5384 40.784 20.0405 38.5238 15.5256C38.2466 14.9188 37.7931 14.4092 37.2223 14.063C36.6515 13.7168 35.9897 13.55 35.3228 13.5842C33.5485 13.5842 31.7517 13.4036 30.0056 13.6265C27.2228 13.982 25.1716 13.127 23.564 10.8216C22.7164 9.60824 21.5609 8.60932 20.3093 7.25768C21.9395 5.73955 23.4171 4.30043 24.988 2.94032C25.4347 2.56902 25.9852 2.34435 26.5645 2.29695C27.8415 2.20383 29.1298 2.26309 30.4125 2.26873C31.1894 2.26873 31.7969 2.01477 31.7997 1.14001C31.8025 0.26525 31.2403 0 30.4379 0C26.9289 0.014109 23.4171 0.0197526 19.9081 0C19.1058 0 18.4955 0.28218 18.4955 1.08922C18.4559 1.97526 19.0888 2.29695 19.9336 2.27155C20.6568 2.2518 21.3829 2.27155 22.1062 2.27155C22.1825 2.41546 22.2559 2.55373 22.335 2.70329C21.0166 3.9336 19.6981 5.1639 18.3797 6.39421C17.6705 7.05451 17.6762 7.74303 18.3486 8.46541C19.62 9.80577 20.8716 11.1659 22.126 12.5232C22.3802 12.8053 22.6091 13.1129 22.9962 13.5926C19.5493 13.5926 16.385 13.6406 13.2236 13.5729C11.3306 13.5334 10.1158 14.3009 9.26818 15.994C7.17465 20.286 4.97095 24.5497 2.87177 28.836C2.49706 29.6122 2.29559 30.4604 2.28129 31.322C2.23044 37.4604 2.22573 43.6006 2.26716 49.7428C2.26716 52.9286 3.77303 55.2707 6.54462 56.8199C6.80172 56.9666 7.06447 57.102 7.44305 57.3165C6.9006 58.7105 6.38358 60.0028 5.88633 61.3009C5.32128 62.7541 5.74224 63.358 7.29897 63.3608C11.2995 63.3608 15.3001 63.3608 19.3007 63.3608C26.4712 63.3608 33.6418 63.3608 40.8123 63.3608C42.3012 63.3608 42.7137 62.7541 42.1938 61.3658C41.7955 60.3076 41.4141 59.241 40.9479 58.2138C40.6202 57.5027 40.7897 57.181 41.4762 56.8199C44.3382 55.3074 45.7763 52.8806 45.8074 49.6638C45.845 43.5254 45.8403 37.3842 45.7932 31.2402ZM13.6897 15.8473H34.4978C36.2664 15.8473 36.597 16.1294 37.1084 18.0285H10.9577C11.5171 16.0504 11.7798 15.8473 13.6897 15.8473ZM8.06461 23.3166C8.91219 20.8616 10.3785 20.2352 12.9354 20.2972C21.075 20.4948 29.2287 20.3819 37.3739 20.3565C38.1481 20.3565 38.5888 20.5512 38.9363 21.282C39.9506 23.4294 41.0553 25.5317 42.1176 27.6509C42.2814 27.9754 42.4001 28.3168 42.612 28.7796H5.39756C6.34403 26.8777 7.42328 25.1705 8.06461 23.3166ZM8.39517 61.0384C8.74549 60.0464 9.15205 59.0751 9.61286 58.1292C9.75695 57.847 10.3644 57.7313 10.7599 57.7313C17.0179 57.7059 23.2759 57.7144 29.5338 57.7115C32.0992 57.7115 34.6617 57.7426 37.227 57.689C38.0746 57.6692 38.5436 57.9288 38.7837 58.7528C39.0013 59.5006 39.329 60.2117 39.6455 61.0413L8.39517 61.0384ZM43.5782 49.3562C43.5782 53.0753 41.2107 55.4428 37.5039 55.4428H10.5452C6.88648 55.4428 4.4963 53.0894 4.4963 49.4578C4.4963 43.7662 4.52173 38.0718 4.47652 32.3774C4.47652 31.3785 4.75905 31.0935 5.74224 31.0991C11.8589 31.1386 17.9728 31.1189 24.0895 31.1189C30.13 31.1189 36.1704 31.1443 42.2108 31.0963C43.3042 31.0963 43.6234 31.4095 43.598 32.5072C43.5443 38.1169 43.5754 43.738 43.5782 49.3562Z" fill="#2D2D2D"/>
<path d="M8.77902 65.8722C8.21396 66.3971 7.64891 66.9304 7.0669 67.4496C5.41412 68.9424 3.75569 70.4266 2.10573 71.9194C1.54068 72.4358 0.938899 72.6954 0.339942 72.0322C-0.259014 71.3691 0.00656063 70.7822 0.571614 70.263C2.17637 68.8238 3.67941 67.2323 5.41977 66.0303C6.22215 65.4659 7.54155 65.655 8.62363 65.4998C8.67731 65.6155 8.72534 65.7481 8.77902 65.8722Z" fill="#2D2D2D"/>
<path d="M47.2388 72.0436C46.6313 72.7096 46.0352 72.4133 45.473 71.9054C43.4011 70.0373 41.3293 68.1702 39.2574 66.3041C39.0926 66.1354 38.9387 65.9563 38.7969 65.7679C40.8311 65.2882 42.3737 65.7454 43.6902 67.2296C44.6565 68.3245 45.8516 69.2049 46.9421 70.1982C47.5467 70.7371 47.8773 71.3466 47.2388 72.0436Z" fill="#2D2D2D"/>
<path d="M16.1586 65.8778C15.3308 66.6256 14.5002 67.379 13.6695 68.1353C12.2399 69.422 10.8104 70.7097 9.38077 71.9983C8.82984 72.495 8.25066 72.653 7.69974 72.0491C7.14881 71.4453 7.3155 70.8527 7.8636 70.356C9.47966 68.8802 11.0025 67.269 12.7852 66.0246C13.5876 65.4602 14.9239 65.6577 16.0145 65.511C16.0654 65.6182 16.1106 65.748 16.1586 65.8778Z" fill="#2D2D2D"/>
<path d="M39.8431 72.0744C39.1594 72.7855 38.5548 72.3115 37.9925 71.7923C35.8143 69.817 33.6303 67.8587 31.291 65.748C33.2687 65.4319 34.8056 65.5222 36.094 67.0065C37.1026 68.1663 38.3542 69.1059 39.5125 70.1359C40.1595 70.7059 40.5438 71.3521 39.8431 72.0744Z" fill="#2D2D2D"/>
<path d="M12.8419 42.4455C11.8384 42.4656 10.8633 42.7818 10.0394 43.3544C9.21547 43.927 8.57963 44.7302 8.21193 45.663C7.84423 46.5958 7.76113 47.6164 7.97308 48.5963C8.18502 49.5762 8.68255 50.4715 9.40299 51.1695C10.1234 51.8675 11.0346 52.3369 12.0216 52.5187C13.0087 52.7005 14.0276 52.5865 14.9499 52.1911C15.8722 51.7957 16.6568 51.1365 17.2047 50.2966C17.7526 49.4566 18.0395 48.4736 18.0291 47.4711C18.0195 46.8008 17.8777 46.1389 17.6117 45.5233C17.3457 44.9078 16.9608 44.3507 16.479 43.8839C15.9972 43.4171 15.428 43.0498 14.8039 42.803C14.1798 42.5561 13.5131 42.4347 12.8419 42.4455ZM12.9351 50.3465C12.3743 50.3566 11.8231 50.1997 11.3519 49.8959C10.8806 49.592 10.5106 49.1549 10.289 48.6403C10.0673 48.1256 10.004 47.5567 10.1072 47.006C10.2104 46.4553 10.4754 45.9478 10.8685 45.5481C11.2615 45.1483 11.7647 44.8745 12.3141 44.7614C12.8635 44.6484 13.4342 44.7012 13.9534 44.9132C14.4726 45.1252 14.9169 45.4868 15.2296 45.9519C15.5424 46.417 15.7095 46.9645 15.7095 47.5247C15.7074 48.2629 15.4158 48.9709 14.8971 49.4969C14.3785 50.0228 13.6741 50.3248 12.9351 50.3381V50.3465Z" fill="#2D2D2D"/>
<path d="M35.1924 42.4456C33.8576 42.456 32.5813 42.9943 31.643 43.9426C30.7047 44.8908 30.1808 46.1718 30.1861 47.5051C30.1956 48.4946 30.4982 49.4592 31.0558 50.2773C31.6133 51.0953 32.4009 51.7302 33.3192 52.1018C34.2376 52.4734 35.2455 52.5652 36.2159 52.3655C37.1864 52.1659 38.0759 51.6837 38.7724 50.9798C39.4689 50.276 39.9411 49.3819 40.1296 48.4103C40.3181 47.4388 40.2143 46.4333 39.8314 45.5205C39.4486 44.6078 38.8037 43.8287 37.9781 43.2815C37.1526 42.7342 36.1833 42.4434 35.1924 42.4456ZM35.2151 50.3466C34.6546 50.3432 34.1079 50.1733 33.6444 49.8586C33.1809 49.544 32.8215 49.0987 32.6121 48.5795C32.4026 48.0603 32.3525 47.4907 32.468 46.9429C32.5836 46.3952 32.8597 45.8942 33.2611 45.5036C33.6626 45.113 34.1713 44.8505 34.7225 44.7494C35.2737 44.6484 35.8426 44.7133 36.3568 44.9361C36.8709 45.1588 37.3072 45.5292 37.61 46.0003C37.9128 46.4713 38.0685 47.0216 38.0573 47.5813C38.0402 48.3213 37.7328 49.025 37.2011 49.5407C36.6694 50.0564 35.9562 50.3428 35.2151 50.3382V50.3466Z" fill="#2D2D2D"/>
<path d="M32.6351 39.0567C32.6351 39.9258 31.9937 40.1685 31.2224 40.1685H23.9813C21.6052 40.1685 19.2264 40.1826 16.8503 40.1685C15.8389 40.1685 15.1551 39.5534 15.4631 38.879C15.5978 38.6358 15.786 38.4264 16.0136 38.2665C16.2412 38.1067 16.5022 38.0006 16.7768 37.9562C21.6052 37.8913 26.4393 37.9139 31.2676 37.9167C32.0389 37.9111 32.6464 38.1904 32.6351 39.0567Z" fill="#2D2D2D"/>
<path d="M32.6299 34.5304C32.6299 35.5519 31.8304 35.6591 31.0167 35.6591C29.5834 35.6591 28.1528 35.6591 26.7251 35.6591H23.3348C21.23 35.6591 19.1223 35.6591 17.0175 35.6591C16.1699 35.6591 15.4156 35.5095 15.4269 34.5304C15.4382 33.5512 16.2208 33.4016 17.0458 33.4016C21.7131 33.4016 26.3823 33.4016 31.0534 33.4016C31.8671 33.3791 32.6412 33.5117 32.6299 34.5304Z" fill="#2D2D2D"/>
<path d="M26.8946 47.4628C26.8211 47.9058 26.2956 48.4307 25.8408 48.5915C25.3153 48.7862 24.657 48.6366 24.0608 48.6366C23.5353 48.6366 22.9477 48.7834 22.5041 48.5943C22.0606 48.4053 21.5322 47.8804 21.5322 47.5023C21.5322 47.1242 22.1284 46.5034 22.5182 46.4526C23.6332 46.3058 24.7626 46.3058 25.8775 46.4526C26.2815 46.5005 26.9454 47.175 26.8946 47.4628Z" fill="#2D2D2D"/>
</svg>
