<svg width="75" height="71" viewBox="0 0 75 71" fill="none" xmlns="http://www.w3.org/2000/svg">
<path d="M70.9576 46.2437L65.0057 43.543L63.3028 40.7907C69.9427 36.5934 73.9679 29.2999 73.9679 21.4386V10.137C73.9507 9.50055 73.5894 8.91569 73.0218 8.62326L57.7294 0.486791C57.2133 0.211562 56.594 0.211562 56.0952 0.503993L41.2844 8.62326C40.7339 8.93289 40.4071 9.50055 40.4243 10.137V21.6623C40.4071 24.9306 41.078 28.1817 42.4197 31.1749H30.0172C27.3509 31.1749 24.8222 32.4306 23.1881 34.5464L16.4278 43.4054L5.07454 46.5017C2.08142 47.3102 0.0172018 50.0281 0 53.1244V57.4593C0.0172018 61.2609 3.11353 64.34 6.91514 64.3744H7.74083C9.01376 68.9845 13.7959 71.6852 18.406 70.395C21.3303 69.5866 23.6181 67.2987 24.4266 64.3744H49.7133C50.9862 68.9845 55.7683 71.6852 60.3784 70.395C63.3028 69.5866 65.5906 67.2987 66.3991 64.3744H68.0849C71.8865 64.3572 74.9828 61.2781 75 57.4593V52.4879C74.9828 49.7872 73.4002 47.3618 70.9576 46.2437ZM43.8647 11.1519L56.9897 3.94436L70.5275 11.1691V21.4386C70.5103 29.2999 65.797 36.3698 58.555 39.4145C58.555 39.4145 58.5378 39.4145 58.5206 39.4145L56.8693 40.1198L55.5275 39.5178C48.4404 36.4042 43.8647 29.4031 43.8647 21.645V11.1519ZM16.0837 67.2127C13.1938 67.2127 10.8716 64.8733 10.8716 62.0006C10.8716 59.1106 13.211 56.7884 16.0837 56.7884C18.9736 56.7884 21.2959 59.1278 21.2959 62.0006C21.2959 64.8733 18.9564 67.1955 16.0837 67.2127ZM58.0562 67.2127C55.1663 67.2127 52.844 64.8733 52.844 62.0006C52.844 59.1278 55.1835 56.7884 58.0562 56.7884C60.9461 56.7884 63.2683 59.1278 63.2683 62.0006C63.2855 64.8733 60.9461 67.1955 58.0562 67.2127ZM71.5768 57.4421H71.5596C71.5424 59.3515 69.9943 60.8996 68.0849 60.9168H66.6399C66.0206 56.1691 61.6858 52.832 56.9381 53.4512C53.0505 53.9501 49.9713 57.0292 49.4725 60.9168H24.6674C24.0482 56.1691 19.7133 52.832 14.9656 53.4512C11.078 53.9501 7.99885 57.0292 7.5 60.9168H6.91514C5.00573 60.8996 3.45757 59.3515 3.44037 57.4421V53.1072C3.45757 51.559 4.48968 50.2173 5.98624 49.8045L17.8899 46.5533C18.2511 46.4501 18.578 46.2437 18.8188 45.934L25.9404 36.6106C26.9209 35.3377 28.4346 34.598 30.0344 34.598H44.3807C46.8234 38.1416 50.2122 40.9455 54.1514 42.6829L56.2156 43.5774C56.6456 43.7666 57.1445 43.7666 57.5917 43.5774L59.914 42.5797C60.0344 42.5281 60.1548 42.4765 60.258 42.4249L62.3739 45.8136C62.5459 46.1061 62.8039 46.3297 63.1135 46.4673L69.547 49.3744C70.7683 49.9249 71.5596 51.1462 71.5768 52.4879V57.4421Z" fill="black"/>
</svg>
