<svg width="27" height="27" viewBox="0 0 27 27" fill="none" xmlns="http://www.w3.org/2000/svg">
<path d="M12.8235 0.00417295C10.6567 0.0303292 5.9984 0.386392 3.3929 2.77674C1.4548 4.69711 0.778116 7.53633 0.698804 11.0472C0.632991 14.5454 0.553679 21.1148 6.88602 22.9035V25.628C6.88602 25.628 6.84637 26.7181 7.56693 26.9417C8.45455 27.2227 8.95996 26.384 9.80371 25.4829L11.3773 23.7034C15.71 24.0637 19.0284 23.2335 19.4106 23.1103C20.2898 22.8293 25.2418 22.1965 26.051 15.6262C26.8812 8.84077 25.6468 4.56549 23.4185 2.63161H23.405C22.7325 2.0123 20.03 0.0429854 13.9921 0.0210479C13.9921 0.0210479 13.5441 -0.00932705 12.8235 0.0033292V0.00417295ZM12.8977 1.91189C13.5128 1.90767 13.8866 1.93383 13.8866 1.93383C18.9972 1.94733 21.4365 3.48549 22.0119 4.00355C23.8884 5.61174 24.8554 9.46599 24.1475 15.1309C23.475 20.6237 19.4587 20.9714 18.7154 21.2085C18.399 21.3097 15.4762 22.0303 11.7941 21.7932C11.7941 21.7932 9.05193 25.1024 8.19468 25.9545C8.05883 26.1039 7.90021 26.1478 7.79896 26.1258C7.65383 26.0904 7.60996 25.9107 7.6184 25.6643L7.64455 21.1426C2.27409 19.6576 2.59049 14.0543 2.64787 11.1273C2.71368 8.20036 3.26296 5.8058 4.89815 4.18411C7.09949 2.1937 11.055 1.92539 12.8961 1.91189H12.8977ZM13.3027 4.83802C13.2585 4.83757 13.2147 4.84588 13.1737 4.86246C13.1327 4.87904 13.0954 4.90357 13.064 4.93463C13.0325 4.96569 13.0076 5.00267 12.9905 5.04343C12.9734 5.08419 12.9645 5.12794 12.9644 5.17214C12.9644 5.36114 13.118 5.51049 13.3027 5.51049C14.1393 5.49458 14.9708 5.64445 15.7492 5.95145C16.5275 6.25846 17.2374 6.71652 17.8379 7.29924C19.0639 8.48977 19.6612 10.0895 19.684 12.1812C19.684 12.366 19.8334 12.5195 20.0224 12.5195V12.506C20.1114 12.5062 20.197 12.4712 20.2604 12.4087C20.3237 12.3461 20.3598 12.261 20.3607 12.1719C20.4017 11.1874 20.242 10.2048 19.8914 9.28388C19.5409 8.36297 19.0067 7.52296 18.3214 6.81492C16.9857 5.50964 15.2931 4.83717 13.3027 4.83717V4.83802ZM8.85533 5.61174C8.61651 5.57684 8.37293 5.62478 8.16515 5.74758H8.14743C7.66502 6.03035 7.23045 6.38775 6.85987 6.80649C6.5519 7.16255 6.38483 7.52283 6.34096 7.86961C6.3148 8.07633 6.33252 8.28305 6.39411 8.48048L6.41605 8.49399C6.76283 9.51324 7.21593 10.4937 7.76943 11.4167C8.48242 12.7135 9.35986 13.9129 10.38 14.985L10.4104 15.0288L10.4585 15.0643L10.4888 15.0997L10.5243 15.1301C11.6002 16.1532 12.8025 17.0347 14.1018 17.7533C15.5868 18.5616 16.4879 18.9438 17.0287 19.1025V19.1109C17.1874 19.159 17.3316 19.1809 17.4768 19.1809C17.9377 19.1472 18.3741 18.96 18.7162 18.6494C19.1331 18.2787 19.4865 17.8423 19.7625 17.3576V17.3491C20.0215 16.8615 19.9338 16.3999 19.56 16.0877C18.8114 15.4334 18.002 14.8522 17.1426 14.3521C16.5672 14.04 15.9825 14.229 15.7454 14.5454L15.24 15.1824C14.981 15.4988 14.5101 15.4549 14.5101 15.4549L14.4966 15.4634C10.9858 14.5665 10.0492 11.0117 10.0492 11.0117C10.0492 11.0117 10.0054 10.5283 10.3302 10.2819L10.963 9.77227C11.2659 9.52589 11.4769 8.94202 11.152 8.36574C10.6554 7.50524 10.0755 6.69558 9.42065 5.94839C9.27749 5.77224 9.07665 5.6524 8.85365 5.61005L8.85533 5.61174ZM13.8866 6.61411C13.4386 6.61411 13.4386 7.2908 13.8908 7.2908C14.4479 7.29983 14.9978 7.41857 15.509 7.64022C16.0202 7.86187 16.4827 8.18209 16.8701 8.58258C17.2235 8.9724 17.495 9.42918 17.6687 9.92586C17.8423 10.4225 17.9145 10.949 17.8809 11.4741C17.8825 11.563 17.9187 11.6477 17.982 11.7102C18.0452 11.7726 18.1304 11.8078 18.2193 11.8082L18.2328 11.826C18.3223 11.8253 18.408 11.7894 18.4713 11.7261C18.5346 11.6628 18.5704 11.5771 18.5711 11.4876C18.6015 10.1469 18.1847 9.02217 17.3671 8.12105C16.5453 7.21992 15.3986 6.71452 13.9347 6.61411H13.8866ZM14.441 8.43324C13.9794 8.41974 13.9617 9.10992 14.419 9.12342C15.5311 9.1808 16.0711 9.74274 16.142 10.8987C16.1435 10.9864 16.1793 11.0701 16.2418 11.1317C16.3042 11.1934 16.3883 11.2282 16.4761 11.2286H16.4896C16.5347 11.2266 16.579 11.2157 16.6198 11.1965C16.6607 11.1773 16.6973 11.1501 16.7276 11.1166C16.7578 11.083 16.7811 11.0438 16.796 11.0012C16.8109 10.9585 16.8172 10.9134 16.8144 10.8683C16.7351 9.36136 15.9133 8.51255 14.4545 8.43408H14.441V8.43324Z" fill="black"/>
</svg>
