<svg width="27" height="27" viewBox="0 0 27 27" fill="none" xmlns="http://www.w3.org/2000/svg">
<g clip-path="url(#clip0)">
<path fill-rule="evenodd" clip-rule="evenodd" d="M19.5919 16.1798C19.2566 16.0122 17.613 15.2044 17.307 15.0919C17.001 14.9805 16.7782 14.9254 16.5544 15.2607C16.3316 15.5937 15.6915 16.3474 15.4969 16.5702C15.3011 16.794 15.1065 16.821 14.7724 16.6545C14.4382 16.4858 13.3605 16.1337 12.0836 14.9952C11.0903 14.1087 10.4186 13.014 10.224 12.6788C10.0294 12.3447 10.2026 12.1635 10.3703 11.997C10.521 11.8474 10.7044 11.6067 10.872 11.412C11.0396 11.2163 11.0948 11.0768 11.2061 10.8529C11.3186 10.6302 11.2624 10.4355 11.178 10.2679C11.0947 10.1003 10.4265 8.45442 10.1475 7.78505C9.87638 7.13367 9.60075 7.22255 9.396 7.2113C9.20025 7.2023 8.9775 7.20005 8.75475 7.20005C8.532 7.20005 8.16975 7.2833 7.86375 7.61855C7.55662 7.95267 6.69375 8.76155 6.69375 10.4074C6.69375 12.0522 7.89075 13.6418 8.05838 13.8657C8.226 14.0884 10.4153 17.4657 13.7689 18.9135C14.5676 19.2578 15.1897 19.4637 15.6746 19.6167C16.4756 19.872 17.2046 19.836 17.7806 19.7494C18.4219 19.6538 19.7584 18.9405 20.0374 18.1598C20.3153 17.379 20.3152 16.7097 20.232 16.5702C20.1487 16.4307 19.926 16.3474 19.5907 16.1798H19.5919ZM13.4921 24.5082H13.4876C11.4957 24.5085 9.54042 23.9731 7.82662 22.9579L7.42163 22.7172L3.21187 23.8219L4.33575 19.7179L4.07137 19.2972C2.95778 17.5246 2.36846 15.473 2.3715 13.3797C2.37375 7.24842 7.362 2.26017 13.4966 2.26017C16.4666 2.26017 19.2589 3.41892 21.3581 5.52042C22.3936 6.55157 23.2142 7.77781 23.7727 9.12818C24.3311 10.4786 24.6163 11.9263 24.6116 13.3875C24.6094 19.5188 19.6211 24.5082 13.4921 24.5082ZM22.9556 3.92405C21.7161 2.67633 20.2413 1.68703 18.6166 1.01345C16.9919 0.339868 15.2498 -0.00458578 13.491 4.60997e-05C6.11775 4.60997e-05 0.11475 6.00192 0.1125 13.3785C0.111375 15.7365 0.72675 18.0383 1.89788 20.0667L0 27L7.092 25.1393C9.05386 26.2082 11.2524 26.7682 13.4865 26.7683H13.4921C20.8654 26.7683 26.8684 20.7664 26.8706 13.3887C26.8761 11.6306 26.5329 9.88891 25.8609 8.26433C25.1889 6.63976 24.2014 5.16455 22.9556 3.92405Z" fill="black"/>
</g>
<defs>
<clipPath id="clip0">
<rect width="27" height="27" fill="white"/>
</clipPath>
</defs>
</svg>
