<svg width="25" height="25" viewBox="0 0 25 25" fill="none" xmlns="http://www.w3.org/2000/svg">
<path d="M10.668 15.3054L15.858 12.3054L10.668 9.30542V15.3054ZM22.228 7.47542C22.358 7.94542 22.448 8.57542 22.508 9.37542C22.578 10.1754 22.608 10.8654 22.608 11.4654L22.668 12.3054C22.668 14.4954 22.508 16.1054 22.228 17.1354C21.978 18.0354 21.398 18.6154 20.498 18.8654C20.028 18.9954 19.168 19.0854 17.848 19.1454C16.548 19.2154 15.358 19.2454 14.258 19.2454L12.668 19.3054C8.47797 19.3054 5.86797 19.1454 4.83797 18.8654C3.93797 18.6154 3.35797 18.0354 3.10797 17.1354C2.97797 16.6654 2.88797 16.0354 2.82797 15.2354C2.75797 14.4354 2.72797 13.7454 2.72797 13.1454L2.66797 12.3054C2.66797 10.1154 2.82797 8.50542 3.10797 7.47542C3.35797 6.57542 3.93797 5.99542 4.83797 5.74542C5.30797 5.61542 6.16797 5.52542 7.48797 5.46542C8.78797 5.39542 9.97797 5.36542 11.078 5.36542L12.668 5.30542C16.858 5.30542 19.468 5.46542 20.498 5.74542C21.398 5.99542 21.978 6.57542 22.228 7.47542Z" fill="white"/>
</svg>
